<svg xmlns="http://www.w3.org/2000/svg" width="365.448" height="431.971" viewBox="0 0 365.448 431.971">
  <g id="bookmark" transform="translate(-33.261)">
    <path id="Path_2" data-name="Path 2" d="M393.146,14.279A32.19,32.19,0,0,0,378.157,2.572,31.606,31.606,0,0,0,365.592,0V0H66.378a31.593,31.593,0,0,0-12.56,2.568A32.167,32.167,0,0,0,38.829,14.275a30.294,30.294,0,0,0-5.568,17.7V400A30.316,30.316,0,0,0,38.829,417.7a32.161,32.161,0,0,0,14.989,11.7,31.577,31.577,0,0,0,12.56,2.566,34.048,34.048,0,0,0,23.7-9.418l125.91-121.062L341.9,422.556a33.98,33.98,0,0,0,23.7,9.127,33.217,33.217,0,0,0,27.554-13.99,30.277,30.277,0,0,0,5.564-17.7V31.98A30.311,30.311,0,0,0,393.146,14.279Zm-30.98,376.86L241.4,275.224,215.986,250.96l-25.409,24.264L69.809,391.139V36.549H362.166v354.59Z" fill="#e5e5e5"/>
  </g>
</svg>
